<svg width="680" height="545" viewBox="0 0 680 545" fill="none" xmlns="http://www.w3.org/2000/svg">
<rect width="680" height="545" fill="white"/>
<path d="M493.464 335L550.622 434C552.161 436.667 550.237 440 547.158 440H432.842C429.763 440 427.839 436.667 429.378 434L486.536 335C488.076 332.333 491.924 332.333 493.464 335Z" stroke="#00B8D4" stroke-width="2"/>
<rect x="168" y="187" width="113" height="116" rx="4" stroke="#00B8D4" stroke-width="2"/>
<path d="M217.779 243H216.648L212.354 236.426V243H211.223V234.469H212.354L216.66 241.072V234.469H217.779V243ZM219.32 239.771C219.32 239.15 219.441 238.592 219.684 238.096C219.93 237.6 220.27 237.217 220.703 236.947C221.141 236.678 221.639 236.543 222.197 236.543C223.061 236.543 223.758 236.842 224.289 237.439C224.824 238.037 225.092 238.832 225.092 239.824V239.9C225.092 240.518 224.973 241.072 224.734 241.564C224.5 242.053 224.162 242.434 223.721 242.707C223.283 242.98 222.779 243.117 222.209 243.117C221.35 243.117 220.652 242.818 220.117 242.221C219.586 241.623 219.32 240.832 219.32 239.848V239.771ZM220.41 239.9C220.41 240.604 220.572 241.168 220.896 241.594C221.225 242.02 221.662 242.232 222.209 242.232C222.76 242.232 223.197 242.018 223.521 241.588C223.846 241.154 224.008 240.549 224.008 239.771C224.008 239.076 223.842 238.514 223.51 238.084C223.182 237.65 222.744 237.434 222.197 237.434C221.662 237.434 221.23 237.646 220.902 238.072C220.574 238.498 220.41 239.107 220.41 239.9ZM226.188 239.777C226.188 238.805 226.418 238.023 226.879 237.434C227.34 236.84 227.943 236.543 228.689 236.543C229.432 236.543 230.02 236.797 230.453 237.305V234H231.537V243H230.541L230.488 242.32C230.055 242.852 229.451 243.117 228.678 243.117C227.943 243.117 227.344 242.816 226.879 242.215C226.418 241.613 226.188 240.828 226.188 239.859V239.777ZM227.271 239.9C227.271 240.619 227.42 241.182 227.717 241.588C228.014 241.994 228.424 242.197 228.947 242.197C229.635 242.197 230.137 241.889 230.453 241.271V238.359C230.129 237.762 229.631 237.463 228.959 237.463C228.428 237.463 228.014 237.668 227.717 238.078C227.42 238.488 227.271 239.096 227.271 239.9ZM235.855 243.117C234.996 243.117 234.297 242.836 233.758 242.273C233.219 241.707 232.949 240.951 232.949 240.006V239.807C232.949 239.178 233.068 238.617 233.307 238.125C233.549 237.629 233.885 237.242 234.314 236.965C234.748 236.684 235.217 236.543 235.721 236.543C236.545 236.543 237.186 236.814 237.643 237.357C238.1 237.9 238.328 238.678 238.328 239.689V240.141H234.033C234.049 240.766 234.23 241.271 234.578 241.658C234.93 242.041 235.375 242.232 235.914 242.232C236.297 242.232 236.621 242.154 236.887 241.998C237.152 241.842 237.385 241.635 237.584 241.377L238.246 241.893C237.715 242.709 236.918 243.117 235.855 243.117ZM235.721 237.434C235.283 237.434 234.916 237.594 234.619 237.914C234.322 238.23 234.139 238.676 234.068 239.25H237.244V239.168C237.213 238.617 237.064 238.191 236.799 237.891C236.533 237.586 236.174 237.434 235.721 237.434ZM211.094 253.197C210.129 252.92 209.426 252.58 208.984 252.178C208.547 251.771 208.328 251.271 208.328 250.678C208.328 250.006 208.596 249.451 209.131 249.014C209.67 248.572 210.369 248.352 211.229 248.352C211.814 248.352 212.336 248.465 212.793 248.691C213.254 248.918 213.609 249.23 213.859 249.629C214.113 250.027 214.24 250.463 214.24 250.936H213.109C213.109 250.42 212.945 250.016 212.617 249.723C212.289 249.426 211.826 249.277 211.229 249.277C210.674 249.277 210.24 249.4 209.928 249.646C209.619 249.889 209.465 250.227 209.465 250.66C209.465 251.008 209.611 251.303 209.904 251.545C210.201 251.783 210.703 252.002 211.41 252.201C212.121 252.4 212.676 252.621 213.074 252.863C213.477 253.102 213.773 253.381 213.965 253.701C214.16 254.021 214.258 254.398 214.258 254.832C214.258 255.523 213.988 256.078 213.449 256.496C212.91 256.91 212.189 257.117 211.287 257.117C210.701 257.117 210.154 257.006 209.646 256.783C209.139 256.557 208.746 256.248 208.469 255.857C208.195 255.467 208.059 255.023 208.059 254.527H209.189C209.189 255.043 209.379 255.451 209.758 255.752C210.141 256.049 210.65 256.197 211.287 256.197C211.881 256.197 212.336 256.076 212.652 255.834C212.969 255.592 213.127 255.262 213.127 254.844C213.127 254.426 212.98 254.104 212.688 253.877C212.395 253.646 211.863 253.42 211.094 253.197ZM218.166 257.117C217.307 257.117 216.607 256.836 216.068 256.273C215.529 255.707 215.26 254.951 215.26 254.006V253.807C215.26 253.178 215.379 252.617 215.617 252.125C215.859 251.629 216.195 251.242 216.625 250.965C217.059 250.684 217.527 250.543 218.031 250.543C218.855 250.543 219.496 250.814 219.953 251.357C220.41 251.9 220.639 252.678 220.639 253.689V254.141H216.344C216.359 254.766 216.541 255.271 216.889 255.658C217.24 256.041 217.686 256.232 218.225 256.232C218.607 256.232 218.932 256.154 219.197 255.998C219.463 255.842 219.695 255.635 219.895 255.377L220.557 255.893C220.025 256.709 219.229 257.117 218.166 257.117ZM218.031 251.434C217.594 251.434 217.227 251.594 216.93 251.914C216.633 252.23 216.449 252.676 216.379 253.25H219.555V253.168C219.523 252.617 219.375 252.191 219.109 251.891C218.844 251.586 218.484 251.434 218.031 251.434ZM224.963 251.633C224.799 251.605 224.621 251.592 224.43 251.592C223.719 251.592 223.236 251.895 222.982 252.5V257H221.898V250.66H222.953L222.971 251.393C223.326 250.826 223.83 250.543 224.482 250.543C224.693 250.543 224.854 250.57 224.963 250.625V251.633ZM228.162 255.529L229.732 250.66H230.84L228.566 257H227.74L225.443 250.66H226.551L228.162 255.529ZM234.432 257.117C233.572 257.117 232.873 256.836 232.334 256.273C231.795 255.707 231.525 254.951 231.525 254.006V253.807C231.525 253.178 231.645 252.617 231.883 252.125C232.125 251.629 232.461 251.242 232.891 250.965C233.324 250.684 233.793 250.543 234.297 250.543C235.121 250.543 235.762 250.814 236.219 251.357C236.676 251.9 236.904 252.678 236.904 253.689V254.141H232.609C232.625 254.766 232.807 255.271 233.154 255.658C233.506 256.041 233.951 256.232 234.49 256.232C234.873 256.232 235.197 256.154 235.463 255.998C235.729 255.842 235.961 255.635 236.16 255.377L236.822 255.893C236.291 256.709 235.494 257.117 234.432 257.117ZM234.297 251.434C233.859 251.434 233.492 251.594 233.195 251.914C232.898 252.23 232.715 252.676 232.645 253.25H235.82V253.168C235.789 252.617 235.641 252.191 235.375 251.891C235.109 251.586 234.75 251.434 234.297 251.434ZM241.229 251.633C241.064 251.605 240.887 251.592 240.695 251.592C239.984 251.592 239.502 251.895 239.248 252.5V257H238.164V250.66H239.219L239.236 251.393C239.592 250.826 240.096 250.543 240.748 250.543C240.959 250.543 241.119 250.57 241.229 250.625V251.633Z" fill="black"/>
<path d="M118.09 380.197C117.125 379.92 116.422 379.58 115.98 379.178C115.543 378.771 115.324 378.271 115.324 377.678C115.324 377.006 115.592 376.451 116.127 376.014C116.666 375.572 117.365 375.352 118.225 375.352C118.811 375.352 119.332 375.465 119.789 375.691C120.25 375.918 120.605 376.23 120.855 376.629C121.109 377.027 121.236 377.463 121.236 377.936H120.105C120.105 377.42 119.941 377.016 119.613 376.723C119.285 376.426 118.822 376.277 118.225 376.277C117.67 376.277 117.236 376.4 116.924 376.646C116.615 376.889 116.461 377.227 116.461 377.66C116.461 378.008 116.607 378.303 116.9 378.545C117.197 378.783 117.699 379.002 118.406 379.201C119.117 379.4 119.672 379.621 120.07 379.863C120.473 380.102 120.77 380.381 120.961 380.701C121.156 381.021 121.254 381.398 121.254 381.832C121.254 382.523 120.984 383.078 120.445 383.496C119.906 383.91 119.186 384.117 118.283 384.117C117.697 384.117 117.15 384.006 116.643 383.783C116.135 383.557 115.742 383.248 115.465 382.857C115.191 382.467 115.055 382.023 115.055 381.527H116.186C116.186 382.043 116.375 382.451 116.754 382.752C117.137 383.049 117.646 383.197 118.283 383.197C118.877 383.197 119.332 383.076 119.648 382.834C119.965 382.592 120.123 382.262 120.123 381.844C120.123 381.426 119.977 381.104 119.684 380.877C119.391 380.646 118.859 380.42 118.09 380.197ZM125.074 383.232C125.461 383.232 125.799 383.115 126.088 382.881C126.377 382.646 126.537 382.354 126.568 382.002H127.594C127.574 382.365 127.449 382.711 127.219 383.039C126.988 383.367 126.68 383.629 126.293 383.824C125.91 384.02 125.504 384.117 125.074 384.117C124.211 384.117 123.523 383.83 123.012 383.256C122.504 382.678 122.25 381.889 122.25 380.889V380.707C122.25 380.09 122.363 379.541 122.59 379.061C122.816 378.58 123.141 378.207 123.562 377.941C123.988 377.676 124.49 377.543 125.068 377.543C125.779 377.543 126.369 377.756 126.838 378.182C127.311 378.607 127.562 379.16 127.594 379.84H126.568C126.537 379.43 126.381 379.094 126.1 378.832C125.822 378.566 125.479 378.434 125.068 378.434C124.518 378.434 124.09 378.633 123.785 379.031C123.484 379.426 123.334 379.998 123.334 380.748V380.953C123.334 381.684 123.484 382.246 123.785 382.641C124.086 383.035 124.516 383.232 125.074 383.232ZM129.896 378.428C130.377 377.838 131.002 377.543 131.771 377.543C133.111 377.543 133.787 378.299 133.799 379.811V384H132.715V379.805C132.711 379.348 132.605 379.01 132.398 378.791C132.195 378.572 131.877 378.463 131.443 378.463C131.092 378.463 130.783 378.557 130.518 378.744C130.252 378.932 130.045 379.178 129.896 379.482V384H128.812V375H129.896V378.428ZM138.053 384.117C137.193 384.117 136.494 383.836 135.955 383.273C135.416 382.707 135.146 381.951 135.146 381.006V380.807C135.146 380.178 135.266 379.617 135.504 379.125C135.746 378.629 136.082 378.242 136.512 377.965C136.945 377.684 137.414 377.543 137.918 377.543C138.742 377.543 139.383 377.814 139.84 378.357C140.297 378.9 140.525 379.678 140.525 380.689V381.141H136.23C136.246 381.766 136.428 382.271 136.775 382.658C137.127 383.041 137.572 383.232 138.111 383.232C138.494 383.232 138.818 383.154 139.084 382.998C139.35 382.842 139.582 382.635 139.781 382.377L140.443 382.893C139.912 383.709 139.115 384.117 138.053 384.117ZM137.918 378.434C137.48 378.434 137.113 378.594 136.816 378.914C136.52 379.23 136.336 379.676 136.266 380.25H139.441V380.168C139.41 379.617 139.262 379.191 138.996 378.891C138.73 378.586 138.371 378.434 137.918 378.434ZM141.521 380.777C141.521 379.805 141.752 379.023 142.213 378.434C142.674 377.84 143.277 377.543 144.023 377.543C144.766 377.543 145.354 377.797 145.787 378.305V375H146.871V384H145.875L145.822 383.32C145.389 383.852 144.785 384.117 144.012 384.117C143.277 384.117 142.678 383.816 142.213 383.215C141.752 382.613 141.521 381.828 141.521 380.859V380.777ZM142.605 380.9C142.605 381.619 142.754 382.182 143.051 382.588C143.348 382.994 143.758 383.197 144.281 383.197C144.969 383.197 145.471 382.889 145.787 382.271V379.359C145.463 378.762 144.965 378.463 144.293 378.463C143.762 378.463 143.348 378.668 143.051 379.078C142.754 379.488 142.605 380.096 142.605 380.9ZM152.473 383.373C152.051 383.869 151.432 384.117 150.615 384.117C149.939 384.117 149.424 383.922 149.068 383.531C148.717 383.137 148.539 382.555 148.535 381.785V377.66H149.619V381.756C149.619 382.717 150.01 383.197 150.791 383.197C151.619 383.197 152.17 382.889 152.443 382.271V377.66H153.527V384H152.496L152.473 383.373ZM156.357 384H155.273V375H156.357V384ZM160.729 384.117C159.869 384.117 159.17 383.836 158.631 383.273C158.092 382.707 157.822 381.951 157.822 381.006V380.807C157.822 380.178 157.941 379.617 158.18 379.125C158.422 378.629 158.758 378.242 159.188 377.965C159.621 377.684 160.09 377.543 160.594 377.543C161.418 377.543 162.059 377.814 162.516 378.357C162.973 378.9 163.201 379.678 163.201 380.689V381.141H158.906C158.922 381.766 159.104 382.271 159.451 382.658C159.803 383.041 160.248 383.232 160.787 383.232C161.17 383.232 161.494 383.154 161.76 382.998C162.025 382.842 162.258 382.635 162.457 382.377L163.119 382.893C162.588 383.709 161.791 384.117 160.729 384.117ZM160.594 378.434C160.156 378.434 159.789 378.594 159.492 378.914C159.195 379.23 159.012 379.676 158.941 380.25H162.117V380.168C162.086 379.617 161.938 379.191 161.672 378.891C161.406 378.586 161.047 378.434 160.594 378.434ZM164.197 380.777C164.197 379.805 164.428 379.023 164.889 378.434C165.35 377.84 165.953 377.543 166.699 377.543C167.441 377.543 168.029 377.797 168.463 378.305V375H169.547V384H168.551L168.498 383.32C168.064 383.852 167.461 384.117 166.688 384.117C165.953 384.117 165.354 383.816 164.889 383.215C164.428 382.613 164.197 381.828 164.197 380.859V380.777ZM165.281 380.9C165.281 381.619 165.43 382.182 165.727 382.588C166.023 382.994 166.434 383.197 166.957 383.197C167.645 383.197 168.146 382.889 168.463 382.271V379.359C168.139 378.762 167.641 378.463 166.969 378.463C166.438 378.463 166.023 378.668 165.727 379.078C165.43 379.488 165.281 380.096 165.281 380.9ZM122.197 394.057H118.5V397.08H122.795V398H117.375V389.469H122.736V390.395H118.5V393.137H122.197V394.057ZM126.152 393.975L127.559 391.66H128.824L126.75 394.795L128.889 398H127.635L126.17 395.627L124.705 398H123.445L125.584 394.795L123.51 391.66H124.764L126.152 393.975ZM132.492 398.117C131.633 398.117 130.934 397.836 130.395 397.273C129.855 396.707 129.586 395.951 129.586 395.006V394.807C129.586 394.178 129.705 393.617 129.943 393.125C130.186 392.629 130.521 392.242 130.951 391.965C131.385 391.684 131.854 391.543 132.357 391.543C133.182 391.543 133.822 391.814 134.279 392.357C134.736 392.9 134.965 393.678 134.965 394.689V395.141H130.67C130.686 395.766 130.867 396.271 131.215 396.658C131.566 397.041 132.012 397.232 132.551 397.232C132.934 397.232 133.258 397.154 133.523 396.998C133.789 396.842 134.021 396.635 134.221 396.377L134.883 396.893C134.352 397.709 133.555 398.117 132.492 398.117ZM132.357 392.434C131.92 392.434 131.553 392.594 131.256 392.914C130.959 393.23 130.775 393.676 130.705 394.25H133.881V394.168C133.85 393.617 133.701 393.191 133.436 392.891C133.17 392.586 132.811 392.434 132.357 392.434ZM138.768 397.232C139.154 397.232 139.492 397.115 139.781 396.881C140.07 396.646 140.23 396.354 140.262 396.002H141.287C141.268 396.365 141.143 396.711 140.912 397.039C140.682 397.367 140.373 397.629 139.986 397.824C139.604 398.02 139.197 398.117 138.768 398.117C137.904 398.117 137.217 397.83 136.705 397.256C136.197 396.678 135.943 395.889 135.943 394.889V394.707C135.943 394.09 136.057 393.541 136.283 393.061C136.51 392.58 136.834 392.207 137.256 391.941C137.682 391.676 138.184 391.543 138.762 391.543C139.473 391.543 140.062 391.756 140.531 392.182C141.004 392.607 141.256 393.16 141.287 393.84H140.262C140.23 393.43 140.074 393.094 139.793 392.832C139.516 392.566 139.172 392.434 138.762 392.434C138.211 392.434 137.783 392.633 137.479 393.031C137.178 393.426 137.027 393.998 137.027 394.748V394.953C137.027 395.684 137.178 396.246 137.479 396.641C137.779 397.035 138.209 397.232 138.768 397.232ZM146.42 397.373C145.998 397.869 145.379 398.117 144.562 398.117C143.887 398.117 143.371 397.922 143.016 397.531C142.664 397.137 142.486 396.555 142.482 395.785V391.66H143.566V395.756C143.566 396.717 143.957 397.197 144.738 397.197C145.566 397.197 146.117 396.889 146.391 396.271V391.66H147.475V398H146.443L146.42 397.373ZM150.598 390.125V391.66H151.781V392.498H150.598V396.43C150.598 396.684 150.65 396.875 150.756 397.004C150.861 397.129 151.041 397.191 151.295 397.191C151.42 397.191 151.592 397.168 151.811 397.121V398C151.525 398.078 151.248 398.117 150.979 398.117C150.494 398.117 150.129 397.971 149.883 397.678C149.637 397.385 149.514 396.969 149.514 396.43V392.498H148.359V391.66H149.514V390.125H150.598ZM154.23 398H153.146V391.66H154.23V398ZM153.059 389.979C153.059 389.803 153.111 389.654 153.217 389.533C153.326 389.412 153.486 389.352 153.697 389.352C153.908 389.352 154.068 389.412 154.178 389.533C154.287 389.654 154.342 389.803 154.342 389.979C154.342 390.154 154.287 390.301 154.178 390.418C154.068 390.535 153.908 390.594 153.697 390.594C153.486 390.594 153.326 390.535 153.217 390.418C153.111 390.301 153.059 390.154 153.059 389.979ZM155.684 394.771C155.684 394.15 155.805 393.592 156.047 393.096C156.293 392.6 156.633 392.217 157.066 391.947C157.504 391.678 158.002 391.543 158.561 391.543C159.424 391.543 160.121 391.842 160.652 392.439C161.188 393.037 161.455 393.832 161.455 394.824V394.9C161.455 395.518 161.336 396.072 161.098 396.564C160.863 397.053 160.525 397.434 160.084 397.707C159.646 397.98 159.143 398.117 158.572 398.117C157.713 398.117 157.016 397.818 156.48 397.221C155.949 396.623 155.684 395.832 155.684 394.848V394.771ZM156.773 394.9C156.773 395.604 156.936 396.168 157.26 396.594C157.588 397.02 158.025 397.232 158.572 397.232C159.123 397.232 159.561 397.018 159.885 396.588C160.209 396.154 160.371 395.549 160.371 394.771C160.371 394.076 160.205 393.514 159.873 393.084C159.545 392.65 159.107 392.434 158.561 392.434C158.025 392.434 157.594 392.646 157.266 393.072C156.938 393.498 156.773 394.107 156.773 394.9ZM163.84 391.66L163.875 392.457C164.359 391.848 164.992 391.543 165.773 391.543C167.113 391.543 167.789 392.299 167.801 393.811V398H166.717V393.805C166.713 393.348 166.607 393.01 166.4 392.791C166.197 392.572 165.879 392.463 165.445 392.463C165.094 392.463 164.785 392.557 164.52 392.744C164.254 392.932 164.047 393.178 163.898 393.482V398H162.814V391.66H163.84Z" fill="black"/>
<path d="M340.824 316.917L344.714 310.966L346.394 312.065C346.911 312.403 347.294 312.817 347.542 313.306C347.791 313.794 347.884 314.32 347.824 314.883C347.765 315.448 347.559 316.005 347.203 316.555L346.955 316.935C346.588 317.496 346.158 317.917 345.664 318.197C345.172 318.478 344.651 318.6 344.1 318.563C343.552 318.527 343.009 318.338 342.471 317.994L340.824 316.917ZM345.076 312.125L342.028 316.789L342.854 317.328C343.459 317.724 344.051 317.843 344.632 317.686C345.216 317.531 345.735 317.106 346.189 316.411L346.416 316.064C346.858 315.388 347.041 314.759 346.967 314.177C346.896 313.595 346.571 313.11 345.992 312.724L345.076 312.125ZM348.929 322.215C348.942 322.099 349.008 321.921 349.127 321.68C348.537 321.815 347.998 321.723 347.51 321.405C347.074 321.12 346.796 320.763 346.676 320.334C346.56 319.904 346.626 319.5 346.873 319.122C347.174 318.661 347.582 318.418 348.096 318.393C348.615 318.366 349.192 318.561 349.827 318.976L350.563 319.457L350.79 319.109C350.962 318.845 351.021 318.583 350.964 318.325C350.909 318.063 350.728 317.832 350.42 317.631C350.15 317.455 349.88 317.375 349.608 317.392C349.337 317.409 349.138 317.514 349.011 317.707L348.251 317.21C348.395 316.99 348.612 316.828 348.901 316.725C349.194 316.621 349.513 316.597 349.859 316.651C350.207 316.708 350.542 316.841 350.863 317.051C351.373 317.384 351.688 317.773 351.81 318.218C351.933 318.661 351.854 319.109 351.573 319.563L350.242 321.598C349.977 322.004 349.817 322.361 349.764 322.668L349.721 322.733L348.929 322.215ZM348.051 320.819C348.288 320.974 348.552 321.059 348.845 321.076C349.138 321.092 349.396 321.033 349.62 320.899L350.213 319.992L349.62 319.605C348.694 318.999 348.053 318.967 347.699 319.51C347.544 319.747 347.502 319.984 347.572 320.22C347.643 320.457 347.803 320.657 348.051 320.819ZM355.368 318.584L354.668 319.655L355.494 320.195L355.112 320.779L354.286 320.24L352.493 322.982C352.377 323.159 352.327 323.317 352.342 323.455C352.358 323.59 352.455 323.715 352.632 323.831C352.719 323.888 352.85 323.95 353.024 324.017L352.623 324.63C352.389 324.555 352.177 324.456 351.989 324.333C351.652 324.112 351.464 323.843 351.426 323.527C351.387 323.21 351.491 322.864 351.737 322.488L353.53 319.745L352.725 319.219L353.107 318.635L353.912 319.161L354.612 318.09L355.368 318.584ZM356.22 326.981C356.233 326.866 356.299 326.687 356.418 326.446C355.828 326.581 355.289 326.49 354.801 326.171C354.365 325.886 354.087 325.529 353.967 325.1C353.851 324.671 353.917 324.267 354.164 323.888C354.465 323.427 354.873 323.184 355.388 323.159C355.907 323.133 356.483 323.327 357.118 323.742L357.854 324.223L358.081 323.875C358.254 323.611 358.312 323.35 358.255 323.091C358.201 322.83 358.019 322.598 357.711 322.397C357.442 322.221 357.171 322.141 356.899 322.158C356.628 322.175 356.429 322.28 356.302 322.474L355.542 321.977C355.686 321.756 355.903 321.594 356.192 321.491C356.485 321.388 356.805 321.363 357.15 321.418C357.498 321.474 357.833 321.607 358.155 321.818C358.664 322.151 358.979 322.54 359.101 322.985C359.224 323.427 359.145 323.875 358.864 324.329L357.533 326.364C357.268 326.77 357.109 327.127 357.055 327.434L357.013 327.5L356.22 326.981ZM355.342 325.585C355.579 325.74 355.844 325.826 356.136 325.842C356.429 325.858 356.687 325.799 356.911 325.666L357.504 324.758L356.911 324.371C355.985 323.765 355.345 323.734 354.99 324.276C354.835 324.513 354.793 324.75 354.864 324.987C354.935 325.223 355.094 325.423 355.342 325.585ZM364.539 330.203L362.046 328.573L360.47 329.76L359.661 329.231L365.823 324.766L366.51 325.215L364.897 332.653L364.091 332.127L364.539 330.203ZM362.705 328.082L364.728 329.405L365.534 325.959L362.705 328.082ZM370.164 330.753C370.062 330.659 369.944 330.569 369.811 330.481C369.315 330.157 368.84 330.148 368.387 330.455L366.335 333.594L365.579 333.1L368.47 328.677L369.206 329.158L368.884 329.677C369.39 329.444 369.871 329.476 370.326 329.774C370.473 329.87 370.572 329.962 370.623 330.05L370.164 330.753ZM370.458 335.524C370.727 335.701 371.016 335.773 371.325 335.741C371.633 335.71 371.879 335.578 372.061 335.347L372.776 335.815C372.597 336.059 372.352 336.244 372.042 336.367C371.731 336.491 371.397 336.533 371.038 336.493C370.682 336.455 370.354 336.337 370.054 336.142C369.452 335.748 369.103 335.234 369.008 334.6C368.918 333.966 369.1 333.299 369.556 332.602L369.639 332.475C369.921 332.045 370.25 331.713 370.627 331.482C371.004 331.25 371.4 331.137 371.816 331.145C372.234 331.153 372.644 331.29 373.048 331.553C373.544 331.877 373.858 332.295 373.991 332.806C374.126 333.318 374.05 333.818 373.762 334.307L373.047 333.839C373.212 333.539 373.256 333.233 373.179 332.923C373.107 332.611 372.928 332.361 372.642 332.174C372.257 331.923 371.868 331.867 371.474 332.006C371.084 332.144 370.719 332.475 370.377 332.998L370.283 333.141C369.95 333.651 369.798 334.112 369.828 334.524C369.858 334.936 370.068 335.27 370.458 335.524ZM376.012 334.372C376.616 334.179 377.187 334.259 377.723 334.61C378.658 335.221 378.785 336.056 378.104 337.116L376.193 340.038L375.437 339.544L377.35 336.617C377.556 336.297 377.636 336.013 377.592 335.766C377.55 335.521 377.377 335.299 377.075 335.102C376.83 334.941 376.572 334.866 376.301 334.876C376.03 334.885 375.774 334.963 375.531 335.107L373.471 338.259L372.715 337.764L376.819 331.487L377.575 331.981L376.012 334.372ZM378.147 341.315L377.391 340.821L380.282 336.399L381.038 336.893L378.147 341.315ZM380.987 335.186C381.067 335.063 381.172 334.983 381.3 334.947C381.432 334.912 381.571 334.943 381.718 335.039C381.865 335.136 381.95 335.251 381.971 335.385C381.992 335.52 381.962 335.648 381.882 335.771C381.802 335.893 381.697 335.97 381.567 336.002C381.438 336.034 381.299 336.002 381.152 335.906C381.005 335.81 380.92 335.696 380.897 335.564C380.877 335.434 380.907 335.308 380.987 335.186ZM381.49 342.036L384.806 339.356L385.578 339.861L381.102 343.247L380.526 342.87L381.814 337.4L382.587 337.905L381.49 342.036ZM384.237 345.296L383.48 344.802L386.371 340.379L387.127 340.874L384.237 345.296ZM387.077 339.166C387.157 339.044 387.261 338.964 387.39 338.928C387.522 338.893 387.661 338.924 387.808 339.02C387.955 339.116 388.039 339.232 388.06 339.366C388.081 339.5 388.052 339.629 387.972 339.751C387.892 339.874 387.787 339.951 387.657 339.983C387.527 340.015 387.389 339.983 387.242 339.887C387.095 339.79 387.01 339.677 386.987 339.545C386.967 339.415 386.997 339.289 387.077 339.166ZM389.056 342.135L388.718 342.707C389.333 342.502 389.914 342.578 390.459 342.935C391.393 343.545 391.52 344.381 390.839 345.441L388.929 348.363L388.172 347.869L390.085 344.942C390.291 344.622 390.371 344.338 390.327 344.091C390.285 343.846 390.113 343.624 389.81 343.427C389.565 343.266 389.307 343.191 389.036 343.201C388.765 343.21 388.509 343.288 388.266 343.432L386.207 346.584L385.45 346.089L388.341 341.667L389.056 342.135ZM391.358 346.743C391.809 346.054 392.326 345.61 392.911 345.412C393.497 345.212 394.052 345.284 394.578 345.628C395.118 345.98 395.414 346.446 395.467 347.025L395.825 346.559L396.515 347.01L393.694 351.326C393.32 351.899 392.855 352.238 392.299 352.345C391.745 352.454 391.183 352.321 390.61 351.947C390.292 351.739 390.024 351.467 389.808 351.131C389.592 350.796 389.481 350.457 389.475 350.114L390.164 349.917C390.227 350.53 390.492 350.989 390.961 351.296C391.329 351.536 391.682 351.619 392.022 351.546C392.364 351.474 392.659 351.25 392.904 350.874L393.153 350.494C392.622 350.645 392.096 350.55 391.573 350.208C391.055 349.87 390.771 349.387 390.722 348.76C390.676 348.134 390.888 347.462 391.358 346.743ZM392.062 347.326C391.737 347.824 391.582 348.283 391.6 348.703C391.619 349.12 391.812 349.449 392.18 349.689C392.657 350.001 393.149 350.013 393.655 349.726L394.975 347.707C395.019 347.133 394.81 346.695 394.347 346.392C393.979 346.152 393.598 346.107 393.204 346.258C392.81 346.408 392.429 346.764 392.062 347.326Z" fill="#193D52"/>
<path d="M312.949 177.651L308.964 171.763L310.626 170.638C311.138 170.292 311.667 170.098 312.214 170.058C312.761 170.018 313.282 170.135 313.778 170.409C314.277 170.681 314.711 171.087 315.08 171.627L315.335 172.003C315.71 172.558 315.932 173.117 315.999 173.681C316.069 174.243 315.98 174.771 315.733 175.265C315.488 175.757 315.103 176.184 314.579 176.547L312.949 177.651ZM310.173 171.877L313.296 176.49L314.113 175.937C314.711 175.532 315.05 175.031 315.13 174.435C315.212 173.837 315.021 173.194 314.555 172.506L314.323 172.163C313.87 171.494 313.361 171.082 312.796 170.926C312.231 170.766 311.659 170.878 311.078 171.264L310.173 171.877ZM320.967 172.223C320.866 172.166 320.727 172.036 320.55 171.833C320.447 172.429 320.154 172.891 319.671 173.218C319.24 173.51 318.804 173.628 318.362 173.574C317.921 173.515 317.573 173.298 317.32 172.923C317.011 172.467 316.945 171.997 317.12 171.513C317.296 171.024 317.698 170.567 318.327 170.142L319.054 169.649L318.822 169.306C318.645 169.044 318.426 168.89 318.166 168.842C317.903 168.791 317.62 168.869 317.315 169.075C317.049 169.256 316.87 169.475 316.781 169.732C316.692 169.989 316.712 170.213 316.841 170.405L316.089 170.914C315.942 170.695 315.876 170.433 315.893 170.127C315.91 169.816 316.011 169.512 316.195 169.215C316.382 168.915 316.634 168.658 316.952 168.443C317.456 168.102 317.937 167.961 318.394 168.021C318.85 168.078 319.232 168.324 319.542 168.759L320.905 170.773C321.177 171.174 321.445 171.459 321.708 171.627L321.752 171.692L320.967 172.223ZM319.34 172.493C319.574 172.334 319.756 172.123 319.884 171.859C320.012 171.596 320.058 171.335 320.021 171.077L319.413 170.179L318.827 170.576C317.91 171.197 317.633 171.775 317.997 172.311C318.155 172.546 318.358 172.676 318.603 172.703C318.849 172.729 319.095 172.659 319.34 172.493ZM320.107 164.88L320.824 165.94L321.641 165.387L322.032 165.965L321.215 166.518L323.052 169.231C323.171 169.406 323.296 169.514 323.429 169.553C323.561 169.59 323.714 169.55 323.889 169.431C323.975 169.373 324.083 169.276 324.212 169.142L324.623 169.748C324.462 169.935 324.289 170.092 324.103 170.218C323.769 170.444 323.448 170.513 323.142 170.426C322.835 170.339 322.556 170.109 322.304 169.737L320.467 167.024L319.671 167.564L319.279 166.985L320.076 166.446L319.359 165.387L320.107 164.88ZM328.181 167.339C328.079 167.282 327.94 167.152 327.764 166.95C327.66 167.546 327.367 168.008 326.885 168.334C326.454 168.626 326.017 168.745 325.575 168.69C325.134 168.631 324.787 168.414 324.533 168.04C324.225 167.584 324.158 167.114 324.334 166.63C324.51 166.141 324.912 165.684 325.54 165.259L326.268 164.766L326.035 164.423C325.858 164.161 325.639 164.006 325.379 163.959C325.117 163.908 324.833 163.986 324.529 164.192C324.262 164.373 324.084 164.592 323.995 164.849C323.905 165.106 323.925 165.33 324.055 165.521L323.303 166.03C323.155 165.812 323.089 165.55 323.106 165.244C323.124 164.933 323.225 164.629 323.409 164.331C323.595 164.032 323.847 163.775 324.166 163.56C324.67 163.218 325.15 163.078 325.608 163.138C326.063 163.195 326.446 163.441 326.756 163.876L328.119 165.889C328.391 166.291 328.658 166.576 328.921 166.744L328.965 166.808L328.181 167.339ZM326.553 167.61C326.788 167.451 326.969 167.24 327.097 166.976C327.226 166.712 327.271 166.451 327.234 166.194L326.626 165.296L326.04 165.693C325.124 166.313 324.847 166.892 325.21 167.428C325.369 167.663 325.571 167.793 325.817 167.819C326.063 167.846 326.308 167.776 326.553 167.61ZM333.641 159.675L331.09 161.402L332.502 163.488L335.466 161.482L335.896 162.117L332.155 164.649L328.17 158.761L331.87 156.257L332.302 156.896L329.379 158.875L330.66 160.767L333.211 159.04L333.641 159.675ZM336.332 157.77L336.221 155.516L337.095 154.925L337.128 158.057L340.101 159.27L339.235 159.856L337.116 158.902L337.214 161.224L336.344 161.813L336.323 158.602L333.427 157.408L334.292 156.822L336.332 157.77ZM338.189 152.639L338.906 153.699L339.723 153.146L340.114 153.724L339.297 154.277L341.134 156.99C341.253 157.165 341.379 157.273 341.512 157.312C341.643 157.349 341.796 157.309 341.971 157.19C342.057 157.132 342.165 157.035 342.294 156.901L342.705 157.507C342.544 157.694 342.371 157.851 342.185 157.977C341.851 158.203 341.531 158.272 341.224 158.185C340.917 158.098 340.638 157.868 340.386 157.496L338.549 154.783L337.753 155.323L337.361 154.744L338.158 154.205L337.441 153.146L338.189 152.639ZM343.169 151.791C343.043 151.849 342.914 151.923 342.782 152.012C342.292 152.344 342.1 152.779 342.208 153.315L344.31 156.42L343.562 156.927L340.6 152.552L341.328 152.059L341.682 152.556C341.663 151.999 341.878 151.569 342.329 151.264C342.474 151.165 342.597 151.109 342.698 151.096L343.169 151.791ZM348.907 153.308C348.806 153.251 348.667 153.121 348.49 152.918C348.387 153.515 348.094 153.977 347.612 154.303C347.18 154.595 346.744 154.714 346.302 154.659C345.861 154.6 345.513 154.383 345.26 154.008C344.951 153.553 344.885 153.083 345.06 152.599C345.236 152.11 345.638 151.653 346.267 151.228L346.994 150.735L346.762 150.391C346.585 150.13 346.366 149.975 346.106 149.927C345.843 149.877 345.56 149.955 345.255 150.161C344.989 150.342 344.81 150.56 344.721 150.817C344.632 151.075 344.652 151.299 344.781 151.49L344.029 151.999C343.882 151.781 343.816 151.519 343.833 151.212C343.85 150.902 343.951 150.598 344.135 150.3C344.322 150.001 344.574 149.744 344.892 149.528C345.396 149.187 345.877 149.046 346.334 149.106C346.79 149.164 347.172 149.41 347.482 149.844L348.846 151.858C349.117 152.26 349.385 152.544 349.648 152.712L349.692 152.777L348.907 153.308ZM347.28 153.578C347.515 153.42 347.696 153.208 347.824 152.945C347.952 152.681 347.998 152.42 347.961 152.162L347.353 151.265L346.767 151.662C345.85 152.282 345.573 152.86 345.937 153.397C346.095 153.631 346.298 153.762 346.543 153.788C346.789 153.814 347.035 153.744 347.28 153.578ZM352.107 150.37C352.374 150.189 352.552 149.95 352.642 149.653C352.732 149.357 352.706 149.08 352.563 148.822L353.271 148.343C353.427 148.603 353.502 148.9 353.496 149.234C353.491 149.568 353.4 149.893 353.224 150.209C353.051 150.522 352.817 150.779 352.52 150.98C351.924 151.383 351.316 151.506 350.695 151.349C350.074 151.188 349.53 150.762 349.063 150.072L348.978 149.946C348.69 149.52 348.512 149.089 348.444 148.651C348.375 148.214 348.425 147.805 348.592 147.425C348.762 147.042 349.046 146.716 349.445 146.446C349.936 146.114 350.442 145.985 350.964 146.06C351.49 146.133 351.922 146.397 352.261 146.851L351.553 147.33C351.34 147.062 351.075 146.903 350.759 146.854C350.443 146.8 350.144 146.869 349.861 147.061C349.481 147.318 349.279 147.655 349.255 148.073C349.231 148.485 349.395 148.951 349.745 149.468L349.841 149.61C350.182 150.114 350.549 150.432 350.941 150.563C351.333 150.695 351.721 150.631 352.107 150.37ZM352.381 143.032L353.098 144.091L353.915 143.538L354.307 144.116L353.49 144.669L355.326 147.382C355.445 147.557 355.571 147.665 355.704 147.705C355.835 147.742 355.988 147.701 356.163 147.582C356.25 147.524 356.357 147.427 356.486 147.293L356.897 147.899C356.737 148.086 356.564 148.243 356.378 148.369C356.043 148.595 355.723 148.665 355.416 148.577C355.11 148.49 354.83 148.261 354.578 147.889L352.742 145.175L351.945 145.715L351.554 145.137L352.35 144.597L351.633 143.538L352.381 143.032ZM358.567 146.769L357.819 147.275L354.857 142.9L355.605 142.394L358.567 146.769ZM354.011 141.781C353.929 141.659 353.896 141.532 353.912 141.4C353.931 141.265 354.013 141.148 354.159 141.05C354.304 140.951 354.443 140.918 354.575 140.951C354.707 140.983 354.814 141.06 354.896 141.181C354.979 141.303 355.009 141.429 354.989 141.561C354.968 141.693 354.885 141.808 354.739 141.907C354.594 142.006 354.456 142.04 354.325 142.01C354.198 141.979 354.093 141.902 354.011 141.781ZM358.062 143.862C357.771 143.433 357.594 142.991 357.529 142.536C357.467 142.079 357.523 141.656 357.696 141.267C357.872 140.877 358.153 140.551 358.539 140.29C359.134 139.887 359.755 139.767 360.401 139.932C361.049 140.094 361.605 140.517 362.069 141.202L362.105 141.255C362.393 141.681 362.57 142.119 362.635 142.57C362.702 143.016 362.646 143.437 362.47 143.832C362.295 144.225 362.011 144.555 361.618 144.821C361.025 145.223 360.404 145.342 359.756 145.18C359.11 145.016 358.557 144.594 358.097 143.915L358.062 143.862ZM358.874 143.442C359.202 143.927 359.578 144.241 360 144.383C360.426 144.524 360.827 144.466 361.205 144.211C361.585 143.953 361.786 143.601 361.809 143.153C361.83 142.702 361.659 142.209 361.296 141.672C360.971 141.192 360.594 140.882 360.164 140.74C359.735 140.594 359.332 140.649 358.955 140.905C358.585 141.155 358.387 141.503 358.359 141.95C358.332 142.397 358.503 142.895 358.874 143.442ZM362.236 137.905L362.633 138.438C362.683 137.791 362.977 137.285 363.516 136.92C364.441 136.295 365.26 136.5 365.974 137.538L367.932 140.429L367.184 140.936L365.224 138.041C365.007 137.727 364.777 137.543 364.532 137.489C364.289 137.433 364.019 137.506 363.719 137.709C363.477 137.873 363.308 138.082 363.212 138.335C363.116 138.589 363.088 138.855 363.128 139.135L365.239 142.252L364.491 142.759L361.529 138.384L362.236 137.905Z" fill="#193D52"/>
<path d="M478.846 399.881C478.557 400.295 478.152 400.605 477.633 400.812C477.117 401.016 476.516 401.117 475.828 401.117C475.133 401.117 474.516 400.955 473.977 400.631C473.438 400.303 473.02 399.838 472.723 399.236C472.43 398.635 472.279 397.938 472.271 397.145V396.4C472.271 395.115 472.57 394.119 473.168 393.412C473.77 392.705 474.613 392.352 475.699 392.352C476.59 392.352 477.307 392.58 477.85 393.037C478.393 393.49 478.725 394.135 478.846 394.971H477.721C477.51 393.842 476.838 393.277 475.705 393.277C474.951 393.277 474.379 393.543 473.988 394.074C473.602 394.602 473.406 395.367 473.402 396.371V397.068C473.402 398.025 473.621 398.787 474.059 399.354C474.496 399.916 475.088 400.197 475.834 400.197C476.256 400.197 476.625 400.15 476.941 400.057C477.258 399.963 477.52 399.805 477.727 399.582V397.666H475.752V396.752H478.846V399.881ZM480.27 397.771C480.27 397.15 480.391 396.592 480.633 396.096C480.879 395.6 481.219 395.217 481.652 394.947C482.09 394.678 482.588 394.543 483.146 394.543C484.01 394.543 484.707 394.842 485.238 395.439C485.773 396.037 486.041 396.832 486.041 397.824V397.9C486.041 398.518 485.922 399.072 485.684 399.564C485.449 400.053 485.111 400.434 484.67 400.707C484.232 400.98 483.729 401.117 483.158 401.117C482.299 401.117 481.602 400.818 481.066 400.221C480.535 399.623 480.27 398.832 480.27 397.848V397.771ZM481.359 397.9C481.359 398.604 481.521 399.168 481.846 399.594C482.174 400.02 482.611 400.232 483.158 400.232C483.709 400.232 484.146 400.018 484.471 399.588C484.795 399.154 484.957 398.549 484.957 397.771C484.957 397.076 484.791 396.514 484.459 396.084C484.131 395.65 483.693 395.434 483.146 395.434C482.611 395.434 482.18 395.646 481.852 396.072C481.523 396.498 481.359 397.107 481.359 397.9ZM487.113 397.771C487.113 397.15 487.234 396.592 487.477 396.096C487.723 395.6 488.062 395.217 488.496 394.947C488.934 394.678 489.432 394.543 489.99 394.543C490.854 394.543 491.551 394.842 492.082 395.439C492.617 396.037 492.885 396.832 492.885 397.824V397.9C492.885 398.518 492.766 399.072 492.527 399.564C492.293 400.053 491.955 400.434 491.514 400.707C491.076 400.98 490.572 401.117 490.002 401.117C489.143 401.117 488.445 400.818 487.91 400.221C487.379 399.623 487.113 398.832 487.113 397.848V397.771ZM488.203 397.9C488.203 398.604 488.365 399.168 488.689 399.594C489.018 400.02 489.455 400.232 490.002 400.232C490.553 400.232 490.99 400.018 491.314 399.588C491.639 399.154 491.801 398.549 491.801 397.771C491.801 397.076 491.635 396.514 491.303 396.084C490.975 395.65 490.537 395.434 489.99 395.434C489.455 395.434 489.023 395.646 488.695 396.072C488.367 396.498 488.203 397.107 488.203 397.9ZM493.986 397.777C493.986 396.789 494.215 396.004 494.672 395.422C495.129 394.836 495.734 394.543 496.488 394.543C497.262 394.543 497.865 394.816 498.299 395.363L498.352 394.66H499.342V400.848C499.342 401.668 499.098 402.314 498.609 402.787C498.125 403.26 497.473 403.496 496.652 403.496C496.195 403.496 495.748 403.398 495.311 403.203C494.873 403.008 494.539 402.74 494.309 402.4L494.871 401.75C495.336 402.324 495.904 402.611 496.576 402.611C497.104 402.611 497.514 402.463 497.807 402.166C498.104 401.869 498.252 401.451 498.252 400.912V400.367C497.818 400.867 497.227 401.117 496.477 401.117C495.734 401.117 495.133 400.818 494.672 400.221C494.215 399.623 493.986 398.809 493.986 397.777ZM495.076 397.9C495.076 398.615 495.223 399.178 495.516 399.588C495.809 399.994 496.219 400.197 496.746 400.197C497.43 400.197 497.932 399.887 498.252 399.266V396.371C497.92 395.766 497.422 395.463 496.758 395.463C496.23 395.463 495.818 395.668 495.521 396.078C495.225 396.488 495.076 397.096 495.076 397.9ZM502.16 401H501.076V392H502.16V401ZM506.531 401.117C505.672 401.117 504.973 400.836 504.434 400.273C503.895 399.707 503.625 398.951 503.625 398.006V397.807C503.625 397.178 503.744 396.617 503.982 396.125C504.225 395.629 504.561 395.242 504.99 394.965C505.424 394.684 505.893 394.543 506.396 394.543C507.221 394.543 507.861 394.814 508.318 395.357C508.775 395.9 509.004 396.678 509.004 397.689V398.141H504.709C504.725 398.766 504.906 399.271 505.254 399.658C505.605 400.041 506.051 400.232 506.59 400.232C506.973 400.232 507.297 400.154 507.562 399.998C507.828 399.842 508.061 399.635 508.26 399.377L508.922 399.893C508.391 400.709 507.594 401.117 506.531 401.117ZM506.396 395.434C505.959 395.434 505.592 395.594 505.295 395.914C504.998 396.23 504.814 396.676 504.744 397.25H507.92V397.168C507.889 396.617 507.74 396.191 507.475 395.891C507.209 395.586 506.85 395.434 506.396 395.434ZM478.014 415V406.469H480.422C481.164 406.469 481.82 406.633 482.391 406.961C482.961 407.289 483.4 407.756 483.709 408.361C484.021 408.967 484.18 409.662 484.184 410.447V410.992C484.184 411.797 484.027 412.502 483.715 413.107C483.406 413.713 482.963 414.178 482.385 414.502C481.811 414.826 481.141 414.992 480.375 415H478.014ZM479.139 407.395V414.08H480.322C481.189 414.08 481.863 413.811 482.344 413.271C482.828 412.732 483.07 411.965 483.07 410.969V410.471C483.07 409.502 482.842 408.75 482.385 408.215C481.932 407.676 481.287 407.402 480.451 407.395H479.139ZM488.783 409.633C488.619 409.605 488.441 409.592 488.25 409.592C487.539 409.592 487.057 409.895 486.803 410.5V415H485.719V408.66H486.773L486.791 409.393C487.146 408.826 487.65 408.543 488.303 408.543C488.514 408.543 488.674 408.57 488.783 408.625V409.633ZM490.963 415H489.879V408.66H490.963V415ZM489.791 406.979C489.791 406.803 489.844 406.654 489.949 406.533C490.059 406.412 490.219 406.352 490.43 406.352C490.641 406.352 490.801 406.412 490.91 406.533C491.02 406.654 491.074 406.803 491.074 406.979C491.074 407.154 491.02 407.301 490.91 407.418C490.801 407.535 490.641 407.594 490.43 407.594C490.219 407.594 490.059 407.535 489.949 407.418C489.844 407.301 489.791 407.154 489.791 406.979ZM494.795 413.529L496.365 408.66H497.473L495.199 415H494.373L492.076 408.66H493.184L494.795 413.529ZM501.064 415.117C500.205 415.117 499.506 414.836 498.967 414.273C498.428 413.707 498.158 412.951 498.158 412.006V411.807C498.158 411.178 498.277 410.617 498.516 410.125C498.758 409.629 499.094 409.242 499.523 408.965C499.957 408.684 500.426 408.543 500.93 408.543C501.754 408.543 502.395 408.814 502.852 409.357C503.309 409.9 503.537 410.678 503.537 411.689V412.141H499.242C499.258 412.766 499.439 413.271 499.787 413.658C500.139 414.041 500.584 414.232 501.123 414.232C501.506 414.232 501.83 414.154 502.096 413.998C502.361 413.842 502.594 413.635 502.793 413.377L503.455 413.893C502.924 414.709 502.127 415.117 501.064 415.117ZM500.93 409.434C500.492 409.434 500.125 409.594 499.828 409.914C499.531 410.23 499.348 410.676 499.277 411.25H502.453V411.168C502.422 410.617 502.273 410.191 502.008 409.891C501.742 409.586 501.383 409.434 500.93 409.434Z" fill="black"/>
<rect x="399" y="82" width="152" height="42" rx="4" stroke="#00B8D4" stroke-width="2"/>
<path d="M450.053 102.311L450.217 103.436L450.457 102.422L452.145 96.4688H453.094L454.74 102.422L454.975 103.453L455.156 102.305L456.48 96.4688H457.611L455.543 105H454.518L452.76 98.7832L452.625 98.1328L452.49 98.7832L450.668 105H449.643L447.58 96.4688H448.705L450.053 102.311ZM462.41 105C462.348 104.875 462.297 104.652 462.258 104.332C461.754 104.855 461.152 105.117 460.453 105.117C459.828 105.117 459.314 104.941 458.912 104.59C458.514 104.234 458.314 103.785 458.314 103.242C458.314 102.582 458.564 102.07 459.064 101.707C459.568 101.34 460.275 101.156 461.186 101.156H462.24V100.658C462.24 100.279 462.127 99.9785 461.9 99.7559C461.674 99.5293 461.34 99.416 460.898 99.416C460.512 99.416 460.188 99.5137 459.926 99.709C459.664 99.9043 459.533 100.141 459.533 100.418H458.443C458.443 100.102 458.555 99.7969 458.777 99.5039C459.004 99.207 459.309 98.9727 459.691 98.8008C460.078 98.6289 460.502 98.543 460.963 98.543C461.693 98.543 462.266 98.7266 462.68 99.0938C463.094 99.457 463.309 99.959 463.324 100.6V103.518C463.324 104.1 463.398 104.562 463.547 104.906V105H462.41ZM460.611 104.174C460.951 104.174 461.273 104.086 461.578 103.91C461.883 103.734 462.104 103.506 462.24 103.225V101.924H461.391C460.062 101.924 459.398 102.312 459.398 103.09C459.398 103.43 459.512 103.695 459.738 103.887C459.965 104.078 460.256 104.174 460.611 104.174ZM466.793 102.064L466.113 102.773V105H465.029V96H466.113V101.443L466.693 100.746L468.668 98.6602H469.986L467.52 101.309L470.273 105H469.002L466.793 102.064ZM475.02 105C474.957 104.875 474.906 104.652 474.867 104.332C474.363 104.855 473.762 105.117 473.062 105.117C472.438 105.117 471.924 104.941 471.521 104.59C471.123 104.234 470.924 103.785 470.924 103.242C470.924 102.582 471.174 102.07 471.674 101.707C472.178 101.34 472.885 101.156 473.795 101.156H474.85V100.658C474.85 100.279 474.736 99.9785 474.51 99.7559C474.283 99.5293 473.949 99.416 473.508 99.416C473.121 99.416 472.797 99.5137 472.535 99.709C472.273 99.9043 472.143 100.141 472.143 100.418H471.053C471.053 100.102 471.164 99.7969 471.387 99.5039C471.613 99.207 471.918 98.9727 472.301 98.8008C472.688 98.6289 473.111 98.543 473.572 98.543C474.303 98.543 474.875 98.7266 475.289 99.0938C475.703 99.457 475.918 99.959 475.934 100.6V103.518C475.934 104.1 476.008 104.562 476.156 104.906V105H475.02ZM473.221 104.174C473.561 104.174 473.883 104.086 474.188 103.91C474.492 103.734 474.713 103.506 474.85 103.225V101.924H474C472.672 101.924 472.008 102.312 472.008 103.09C472.008 103.43 472.121 103.695 472.348 103.887C472.574 104.078 472.865 104.174 473.221 104.174ZM483.697 97.3945H480.955V105H479.836V97.3945H477.1V96.4688H483.697V97.3945ZM485.971 105H484.887V98.6602H485.971V105ZM484.799 96.9785C484.799 96.8027 484.852 96.6543 484.957 96.5332C485.066 96.4121 485.227 96.3516 485.438 96.3516C485.648 96.3516 485.809 96.4121 485.918 96.5332C486.027 96.6543 486.082 96.8027 486.082 96.9785C486.082 97.1543 486.027 97.3008 485.918 97.418C485.809 97.5352 485.648 97.5938 485.438 97.5938C485.227 97.5938 485.066 97.5352 484.957 97.418C484.852 97.3008 484.799 97.1543 484.799 96.9785ZM488.73 98.6602L488.76 99.3633C489.225 98.8164 489.852 98.543 490.641 98.543C491.527 98.543 492.131 98.8828 492.451 99.5625C492.662 99.2578 492.936 99.0117 493.271 98.8242C493.611 98.6367 494.012 98.543 494.473 98.543C495.863 98.543 496.57 99.2793 496.594 100.752V105H495.51V100.816C495.51 100.363 495.406 100.025 495.199 99.8027C494.992 99.5762 494.645 99.4629 494.156 99.4629C493.754 99.4629 493.42 99.584 493.154 99.8262C492.889 100.064 492.734 100.387 492.691 100.793V105H491.602V100.846C491.602 99.9238 491.15 99.4629 490.248 99.4629C489.537 99.4629 489.051 99.7656 488.789 100.371V105H487.705V98.6602H488.73ZM500.865 105.117C500.006 105.117 499.307 104.836 498.768 104.273C498.229 103.707 497.959 102.951 497.959 102.006V101.807C497.959 101.178 498.078 100.617 498.316 100.125C498.559 99.6289 498.895 99.2422 499.324 98.9648C499.758 98.6836 500.227 98.543 500.73 98.543C501.555 98.543 502.195 98.8145 502.652 99.3574C503.109 99.9004 503.338 100.678 503.338 101.689V102.141H499.043C499.059 102.766 499.24 103.271 499.588 103.658C499.939 104.041 500.385 104.232 500.924 104.232C501.307 104.232 501.631 104.154 501.896 103.998C502.162 103.842 502.395 103.635 502.594 103.377L503.256 103.893C502.725 104.709 501.928 105.117 500.865 105.117ZM500.73 99.4336C500.293 99.4336 499.926 99.5938 499.629 99.9141C499.332 100.23 499.148 100.676 499.078 101.25H502.254V101.168C502.223 100.617 502.074 100.191 501.809 99.8906C501.543 99.5859 501.184 99.4336 500.73 99.4336Z" fill="black"/>
<path d="M382.491 103.096C382.544 102.825 382.367 102.562 382.096 102.509L377.68 101.646C377.409 101.593 377.146 101.77 377.093 102.041C377.04 102.312 377.217 102.574 377.488 102.627L381.413 103.395L380.646 107.32C380.593 107.591 380.77 107.854 381.041 107.907C381.312 107.96 381.574 107.783 381.627 107.512L382.491 103.096ZM275.279 175.415L382.279 103.415L381.721 102.585L274.721 174.585L275.279 175.415Z" fill="black"/>
<path d="M295.509 206.904C295.456 207.175 295.633 207.438 295.904 207.491L300.32 208.354C300.591 208.407 300.854 208.23 300.907 207.959C300.96 207.688 300.783 207.426 300.512 207.373L296.587 206.605L297.354 202.68C297.407 202.409 297.23 202.146 296.959 202.093C296.688 202.04 296.426 202.217 296.373 202.488L295.509 206.904ZM402.721 134.585L295.721 206.585L296.279 207.415L403.279 135.415L402.721 134.585Z" fill="black"/>
<path d="M435.686 384.511C435.956 384.455 436.13 384.191 436.075 383.92L435.17 379.512C435.114 379.242 434.85 379.068 434.579 379.123C434.309 379.179 434.134 379.443 434.19 379.713L434.995 383.632L431.077 384.436C430.806 384.492 430.632 384.756 430.687 385.027C430.743 385.297 431.007 385.471 431.278 385.416L435.686 384.511ZM291.14 289.397L435.31 384.438L435.86 383.603L291.69 288.562L291.14 289.397Z" fill="black"/>
<path d="M51.293 235.881C51.0039 236.295 50.5996 236.605 50.0801 236.812C49.5645 237.016 48.9629 237.117 48.2754 237.117C47.5801 237.117 46.9629 236.955 46.4238 236.631C45.8848 236.303 45.4668 235.838 45.1699 235.236C44.877 234.635 44.7266 233.938 44.7188 233.145V232.4C44.7188 231.115 45.0176 230.119 45.6152 229.412C46.2168 228.705 47.0605 228.352 48.1465 228.352C49.0371 228.352 49.7539 228.58 50.2969 229.037C50.8398 229.49 51.1719 230.135 51.293 230.971H50.168C49.957 229.842 49.2852 229.277 48.1523 229.277C47.3984 229.277 46.8262 229.543 46.4355 230.074C46.0488 230.602 45.8535 231.367 45.8496 232.371V233.068C45.8496 234.025 46.0684 234.787 46.5059 235.354C46.9434 235.916 47.5352 236.197 48.2812 236.197C48.7031 236.197 49.0723 236.15 49.3887 236.057C49.7051 235.963 49.9668 235.805 50.1738 235.582V233.666H48.1992V232.752H51.293V235.881ZM54.1816 237H53.0977V230.66H54.1816V237ZM53.0098 228.979C53.0098 228.803 53.0625 228.654 53.168 228.533C53.2773 228.412 53.4375 228.352 53.6484 228.352C53.8594 228.352 54.0195 228.412 54.1289 228.533C54.2383 228.654 54.293 228.803 54.293 228.979C54.293 229.154 54.2383 229.301 54.1289 229.418C54.0195 229.535 53.8594 229.594 53.6484 229.594C53.4375 229.594 53.2773 229.535 53.168 229.418C53.0625 229.301 53.0098 229.154 53.0098 228.979ZM57.3926 229.125V230.66H58.5762V231.498H57.3926V235.43C57.3926 235.684 57.4453 235.875 57.5508 236.004C57.6562 236.129 57.8359 236.191 58.0898 236.191C58.2148 236.191 58.3867 236.168 58.6055 236.121V237C58.3203 237.078 58.043 237.117 57.7734 237.117C57.2891 237.117 56.9238 236.971 56.6777 236.678C56.4316 236.385 56.3086 235.969 56.3086 235.43V231.498H55.1543V230.66H56.3086V229.125H57.3926ZM60.9316 231.428C61.4121 230.838 62.0371 230.543 62.8066 230.543C64.1465 230.543 64.8223 231.299 64.834 232.811V237H63.75V232.805C63.7461 232.348 63.6406 232.01 63.4336 231.791C63.2305 231.572 62.9121 231.463 62.4785 231.463C62.127 231.463 61.8184 231.557 61.5527 231.744C61.2871 231.932 61.0801 232.178 60.9316 232.482V237H59.8477V228H60.9316V231.428ZM70.3711 236.373C69.9492 236.869 69.3301 237.117 68.5137 237.117C67.8379 237.117 67.3223 236.922 66.9668 236.531C66.6152 236.137 66.4375 235.555 66.4336 234.785V230.66H67.5176V234.756C67.5176 235.717 67.9082 236.197 68.6895 236.197C69.5176 236.197 70.0684 235.889 70.3418 235.271V230.66H71.4258V237H70.3945L70.3711 236.373ZM78.4453 233.9C78.4453 234.869 78.2227 235.648 77.7773 236.238C77.332 236.824 76.7344 237.117 75.9844 237.117C75.1836 237.117 74.5645 236.834 74.127 236.268L74.0742 237H73.0781V228H74.1621V231.357C74.5996 230.814 75.2031 230.543 75.9727 230.543C76.7422 230.543 77.3457 230.834 77.7832 231.416C78.2246 231.998 78.4453 232.795 78.4453 233.807V233.9ZM77.3613 233.777C77.3613 233.039 77.2188 232.469 76.9336 232.066C76.6484 231.664 76.2383 231.463 75.7031 231.463C74.9883 231.463 74.4746 231.795 74.1621 232.459V235.201C74.4941 235.865 75.0117 236.197 75.7148 236.197C76.2344 236.197 76.6387 235.996 76.9277 235.594C77.2168 235.191 77.3613 234.586 77.3613 233.777ZM46.8984 248.773H43.3242L42.5215 251H41.3613L44.6191 242.469H45.6035L48.8672 251H47.7129L46.8984 248.773ZM43.6641 247.848H46.5645L45.1113 243.857L43.6641 247.848ZM52.3887 250.232C52.7754 250.232 53.1133 250.115 53.4023 249.881C53.6914 249.646 53.8516 249.354 53.8828 249.002H54.9082C54.8887 249.365 54.7637 249.711 54.5332 250.039C54.3027 250.367 53.9941 250.629 53.6074 250.824C53.2246 251.02 52.8184 251.117 52.3887 251.117C51.5254 251.117 50.8379 250.83 50.3262 250.256C49.8184 249.678 49.5645 248.889 49.5645 247.889V247.707C49.5645 247.09 49.6777 246.541 49.9043 246.061C50.1309 245.58 50.4551 245.207 50.877 244.941C51.3027 244.676 51.8047 244.543 52.3828 244.543C53.0938 244.543 53.6836 244.756 54.1523 245.182C54.625 245.607 54.877 246.16 54.9082 246.84H53.8828C53.8516 246.43 53.6953 246.094 53.4141 245.832C53.1367 245.566 52.793 245.434 52.3828 245.434C51.832 245.434 51.4043 245.633 51.0996 246.031C50.7988 246.426 50.6484 246.998 50.6484 247.748V247.953C50.6484 248.684 50.7988 249.246 51.0996 249.641C51.4004 250.035 51.8301 250.232 52.3887 250.232ZM57.5977 243.125V244.66H58.7812V245.498H57.5977V249.43C57.5977 249.684 57.6504 249.875 57.7559 250.004C57.8613 250.129 58.041 250.191 58.2949 250.191C58.4199 250.191 58.5918 250.168 58.8105 250.121V251C58.5254 251.078 58.248 251.117 57.9785 251.117C57.4941 251.117 57.1289 250.971 56.8828 250.678C56.6367 250.385 56.5137 249.969 56.5137 249.43V245.498H55.3594V244.66H56.5137V243.125H57.5977ZM61.2305 251H60.1465V244.66H61.2305V251ZM60.0586 242.979C60.0586 242.803 60.1113 242.654 60.2168 242.533C60.3262 242.412 60.4863 242.352 60.6973 242.352C60.9082 242.352 61.0684 242.412 61.1777 242.533C61.2871 242.654 61.3418 242.803 61.3418 242.979C61.3418 243.154 61.2871 243.301 61.1777 243.418C61.0684 243.535 60.9082 243.594 60.6973 243.594C60.4863 243.594 60.3262 243.535 60.2168 243.418C60.1113 243.301 60.0586 243.154 60.0586 242.979ZM62.6836 247.771C62.6836 247.15 62.8047 246.592 63.0469 246.096C63.293 245.6 63.6328 245.217 64.0664 244.947C64.5039 244.678 65.002 244.543 65.5605 244.543C66.4238 244.543 67.1211 244.842 67.6523 245.439C68.1875 246.037 68.4551 246.832 68.4551 247.824V247.9C68.4551 248.518 68.3359 249.072 68.0977 249.564C67.8633 250.053 67.5254 250.434 67.084 250.707C66.6465 250.98 66.1426 251.117 65.5723 251.117C64.7129 251.117 64.0156 250.818 63.4805 250.221C62.9492 249.623 62.6836 248.832 62.6836 247.848V247.771ZM63.7734 247.9C63.7734 248.604 63.9355 249.168 64.2598 249.594C64.5879 250.02 65.0254 250.232 65.5723 250.232C66.123 250.232 66.5605 250.018 66.8848 249.588C67.209 249.154 67.3711 248.549 67.3711 247.771C67.3711 247.076 67.2051 246.514 66.873 246.084C66.5449 245.65 66.1074 245.434 65.5605 245.434C65.0254 245.434 64.5938 245.646 64.2656 246.072C63.9375 246.498 63.7734 247.107 63.7734 247.9ZM70.8398 244.66L70.875 245.457C71.3594 244.848 71.9922 244.543 72.7734 244.543C74.1133 244.543 74.7891 245.299 74.8008 246.811V251H73.7168V246.805C73.7129 246.348 73.6074 246.01 73.4004 245.791C73.1973 245.572 72.8789 245.463 72.4453 245.463C72.0938 245.463 71.7852 245.557 71.5195 245.744C71.2539 245.932 71.0469 246.178 70.8984 246.482V251H69.8145V244.66H70.8398ZM80.127 249.318C80.127 249.025 80.0156 248.799 79.793 248.639C79.5742 248.475 79.1895 248.334 78.6387 248.217C78.0918 248.1 77.6562 247.959 77.332 247.795C77.0117 247.631 76.7734 247.436 76.6172 247.209C76.4648 246.982 76.3887 246.713 76.3887 246.4C76.3887 245.881 76.6074 245.441 77.0449 245.082C77.4863 244.723 78.0488 244.543 78.7324 244.543C79.4512 244.543 80.0332 244.729 80.4785 245.1C80.9277 245.471 81.1523 245.945 81.1523 246.523H80.0625C80.0625 246.227 79.9355 245.971 79.6816 245.756C79.4316 245.541 79.1152 245.434 78.7324 245.434C78.3379 245.434 78.0293 245.52 77.8066 245.691C77.584 245.863 77.4727 246.088 77.4727 246.365C77.4727 246.627 77.5762 246.824 77.7832 246.957C77.9902 247.09 78.3633 247.217 78.9023 247.338C79.4453 247.459 79.8848 247.604 80.2207 247.771C80.5566 247.939 80.8047 248.143 80.9648 248.381C81.1289 248.615 81.2109 248.902 81.2109 249.242C81.2109 249.809 80.9844 250.264 80.5312 250.607C80.0781 250.947 79.4902 251.117 78.7676 251.117C78.2598 251.117 77.8105 251.027 77.4199 250.848C77.0293 250.668 76.7227 250.418 76.5 250.098C76.2812 249.773 76.1719 249.424 76.1719 249.049H77.2559C77.2754 249.412 77.4199 249.701 77.6895 249.916C77.9629 250.127 78.3223 250.232 78.7676 250.232C79.1777 250.232 79.5059 250.15 79.752 249.986C80.002 249.818 80.127 249.596 80.127 249.318Z" fill="black"/>
<path d="M61.6464 219.354C61.8417 219.549 62.1583 219.549 62.3535 219.354L65.5355 216.172C65.7308 215.976 65.7308 215.66 65.5355 215.464C65.3403 215.269 65.0237 215.269 64.8284 215.464L62 218.293L59.1716 215.464C58.9763 215.269 58.6597 215.269 58.4645 215.464C58.2692 215.66 58.2692 215.976 58.4645 216.172L61.6464 219.354ZM61.5 120L61.5 219L62.5 219L62.5 120L61.5 120Z" fill="black"/>
<path d="M224.354 304.646C224.158 304.451 223.842 304.451 223.646 304.646L220.464 307.828C220.269 308.024 220.269 308.34 220.464 308.536C220.66 308.731 220.976 308.731 221.172 308.536L224 305.707L226.828 308.536C227.024 308.731 227.34 308.731 227.536 308.536C227.731 308.34 227.731 308.024 227.536 307.828L224.354 304.646ZM224.5 403L224.5 305L223.5 305L223.5 403L224.5 403Z" fill="black"/>
<line x1="62" y1="120.5" x2="225" y2="120.5" stroke="black"/>
<line x1="224" y1="402.5" x2="62" y2="402.5" stroke="black"/>
<line x1="62.5" y1="261" x2="62.5" y2="402" stroke="black"/>
<line x1="224.5" y1="121" x2="224.5" y2="186" stroke="black"/>
</svg>
